inDegrees=yes
name=ik_lifting_orientations
DataType=double
version=3
OpenSimVersion=4.5-2024-01-10-34fd6af
endheader
time	pelvis_tilt	pelvis_list	pelvis_rotation	pelvis_tx	pelvis_ty	pelvis_tz	hip_flexion_r	hip_adduction_r	hip_rotation_r	knee_angle_r	knee_angle_r_beta	ankle_angle_r	subtalar_angle_r	mtp_angle_r	hip_flexion_l	hip_adduction_l	hip_rotation_l	knee_angle_l	knee_angle_l_beta	ankle_angle_l	subtalar_angle_l	mtp_angle_l	lumbar_extension	lumbar_bending	lumbar_rotation	arm_flex_r	arm_add_r	arm_rot_r	elbow_flex_r	pro_sup_r	wrist_flex_r	wrist_dev_r	arm_flex_l	arm_add_l	arm_rot_l	elbow_flex_l	pro_sup_l	wrist_flex_l	wrist_dev_l
0.02	0.0005707343966672505	0.001338766124766623	-44.8776735646511	0	0.9399999998679526	0	45.69673450254619	-9.819986115919052	0	60.15400813117145	1.049885500160383	-4.90443896605924	0	0	45.69673450254619	-9.819986115919052	0	60.15400813117145	1.049885500160383	-4.90443896605924	0	0	-33.92882126967984	-6.644635798331048	4.977108288028204	-9.066487490936348	-1.285103705641986	-8.299440372159253	43.66153873731342	-0.5452773448449886	0	0	0	-15.18314380775889	0	90.48863120942086	-0.5452773448449886	0	0
0.03	-1.349431249507078	-1.371141444833105	-45.61746188402226	0	0.9399999998679526	0	45.69651296966038	-9.82018316164095	0	60.15396943119609	1.049884824718392	-4.904574862342566	0	0	45.69651296966038	-9.82018316164095	0	60.15396943119609	1.049884824718392	-4.904574862342566	0	0	-33.97301962609608	-6.06651843811953	5.802683906634607	-8.96715583257323	-0.8534150463988248	-7.393459052174613	43.8431727172055	-0.545156353187344	0	0	0	-15.18311382395708	0	90.48852274966636	-0.545156353187344	0	0
0.04	-2.060251411096814	-2.07192857892962	-45.11010866758852	0	0.9399999998679526	0	45.69646227516026	-9.820227168208417	0	60.15396037673713	1.049884666688272	-4.904605097809463	0	0	45.69646227516026	-9.820227168208417	0	60.15396037673713	1.049884666688272	-4.904605097809463	0	0	-34.00996699985835	-5.51283543568628	5.86489740741754	-8.942169032695217	-0.3156233356918762	-7.24536732051328	43.92781437952667	-0.5451284314770399	0	0	0	-15.18310685341438	0	90.4884977199854	-0.5451284314770399	0	0
0.05	-4.547328964223238	-3.357253754930659	-45.23994933135694	0	0.9399999998679526	0	45.69622885872745	-9.820435042797834	0	60.15391964034242	1.049883955704058	-4.904748497056958	0	0	45.69622885872745	-9.820435042797834	0	60.15391964034242	1.049883955704058	-4.904748497056958	0	0	-33.80205008458568	-4.462421638235521	6.578276551935613	-8.56019188081533	0.577376498285619	-6.38224764611321	44.42538372668989	-0.5450009932771719	0	0	0	-15.18307528072712	0	90.48838348140048	-0.5450009932771719	0	0
0.06	-6.7886100220532	-3.154882191229718	-45.70086508855522	0	0.9399999998679526	0	45.69602391769542	-9.820617269817811	0	60.15388383836858	1.049883330841736	-4.904874153484901	0	0	45.69602391769542	-9.820617269817811	0	60.15388383836858	1.049883330841736	-4.904874153484901	0	0	-33.25699457643951	-4.027046265290722	7.073198863230282	-7.928801081167287	0.8646701267015422	-5.82992500137857	45.09373987579281	-0.5448890535080968	0	0	0	-15.18304753770743	0	90.48828313597028	-0.5448890535080968	0	0
0.07000000000000001	-7.501802994729952	-3.872754839934012	-45.21760139549593	0	0.9399999998679526	0	45.69174058090429	-9.823193907277481	0	60.15293241798363	1.049866725423448	-4.906496164847503	0	0	45.69174058090429	-9.823193907277481	0	60.15293241798363	1.049866725423448	-4.906496164847503	0	0	-33.07371503377527	-3.236222035639675	7.375199559241232	-7.595181127401963	1.517539449222571	-5.364020746905021	45.53714235623836	-0.5423066059973326	0	0	0	-15.18235580000817	0	90.48596816328501	-0.5423066059973326	0	0
0.08	-9.282076106615285	-4.406680251532567	-45.89333456764339	0	0.9399999998679526	0	45.69152065258434	-9.823387633617456	0	60.15289399944177	1.049866054893399	-4.906629321674764	0	0	45.69152065258434	-9.823387633617456	0	60.15289399944177	1.049866054893399	-4.906629321674764	0	0	-32.82508854125475	-2.750519469851808	8.035799476842044	-7.250234571238909	1.87003380471316	-4.639119537123896	45.92715892434429	-0.5421862985813833	0	0	0	-15.18232595352723	0	90.4858603168926	-0.5421862985813833	0	0
0.09	-9.768048574232239	-3.651600650373932	-45.68656198780238	0	0.9399999998679526	0	45.69146404277581	-9.823437582569778	0	60.15288409403869	1.049865882011501	-4.906663695759336	0	0	45.69146404277581	-9.823437582569778	0	60.15288409403869	1.049865882011501	-4.906663695759336	0	0	-32.77318076959465	-3.016375690012627	7.588972394005585	-7.295019629957557	1.65822611874599	-5.116165691996889	45.91144410363345	-0.5421553169436774	0	0	0	-15.18231826269861	0	90.48583254422461	-0.5421553169436774	0	0
0.1	-11.13810209248369	-3.059299632244695	-44.06096069666934	0	0.9399999998679526	0	45.69124848368671	-9.823627689915698	0	60.15284648227648	1.049865225562413	-4.906794386031339	0	0	45.69124848368671	-9.823627689915698	0	60.15284648227648	1.049865225562413	-4.906794386031339	0	0	-32.35636200301345	-2.398000753078906	6.994425231444398	-6.830709176994765	2.288424873962306	-5.618911878647837	46.46604947947991	-0.5420374459909163	0	0	0	-15.18228903025677	0	90.48572688193595	-0.5420374459909163	0	0
0.11	-11.13810209248369	-3.059299632244695	-44.06096069666934	0	0.9399999998679526	0	45.69124848368671	-9.823627689915698	0	60.15284648227648	1.049865225562413	-4.906794386031339	0	0	45.69124848368671	-9.823627689915698	0	60.15284648227648	1.049865225562413	-4.906794386031339	0	0	-32.35636200301345	-2.398000753078906	6.994425231444398	-6.830709176994765	2.288424873962306	-5.618911878647837	46.46604947947991	-0.5420374459909163	0	0	0	-15.18228903025677	0	90.48572688193595	-0.5420374459909163	0	0
0.12	-10.5149414233296	-1.363680502584898	-43.24724920947049	0	0.9399999998679526	0	45.69103811292469	-9.823812340610832	0	60.15280969813261	1.049864583557991	-4.906921142298228	0	0	45.69103811292469	-9.823812340610832	0	60.15280969813261	1.049864583557991	-4.906921142298228	0	0	-32.06967721446782	-2.905864785810491	6.209995582285964	-6.64071256467289	1.847628381867878	-6.450626039180263	46.61727329517911	-0.5419223011655586	0	0	0	-15.18226045344044	0	90.48562366340909	-0.5419223011655586	0	0
0.13	-11.2263631387428	-0.03351077131057542	-42.07276343463819	0	0.9399999998679526	0	45.6907854718558	-9.824035140994766	0	60.1527657100425	1.049863815820986	-4.907074202932685	0	0	45.6907854718558	-9.824035140994766	0	60.1527657100425	1.049863815820986	-4.907074202932685	0	0	-31.8691921418492	-2.127137317860349	5.519980142141859	-6.426626542125829	2.705035546044847	-7.037724768916208	46.97375030537862	-0.5417842378057949	0	0	0	-15.18222623524184	0	90.48549990017489	-0.5417842378057949	0	0
0.14	-10.63950200676498	1.650881956912006	-41.26675376265226	0	0.9399999998679526	0	45.69056991760038	-9.82422417061227	0	60.15272803320922	1.049863158236194	-4.907203896986243	0	0	45.69056991760038	-9.82422417061227	0	60.15272803320922	1.049863158236194	-4.907203896986243	0	0	-31.60873465482928	-2.618843411544927	4.729089406518046	-6.244954022159622	2.282176258924021	-7.868863933477672	47.13672183733608	-0.5416662553824805	0	0	0	-15.18219695533854	0	90.48539413795831	-0.5416662553824805	0	0
0.15	-10.24051257535752	1.843654906880331	-40.26590756769959	0	0.9399999998679526	0	45.69050549176671	-9.824280043119922	0	60.15271663850638	1.049862959361112	-4.907242183678631	0	0	45.69050549176671	-9.824280043119922	0	60.15271663850638	1.049862959361112	-4.907242183678631	0	0	-31.93841558280905	-2.267567995016972	3.56149798674497	-6.665962902213659	2.816006746823722	-8.995920207968613	46.87265489353278	-0.541630836743328	0	0	0	-15.18218813063566	0	90.48536238785384	-0.541630836743328	0	0
0.16	-12.09733293726351	2.158605688149323	-39.59667786780799	0	0.9399999998679526	0	45.69031997791411	-9.824442544447297	0	60.15268418221621	1.049862392891985	-4.907353652012078	0	0	45.69031997791411	-9.824442544447297	0	60.15268418221621	1.049862392891985	-4.907353652012078	0	0	-31.4189356692467	-1.742201721314327	3.530513354873908	-6.114598045577979	3.306444666467522	-8.941567356908791	47.45813145972903	-0.5415292565266157	0	0	0	-15.18216291231927	0	90.48527132895947	-0.5415292565266157	0	0
0.17	-13.73763009334921	1.953398187300271	-39.83680416992939	0	0.9399999998679526	0	45.69010979177958	-9.824626928481759	0	60.15264746518771	1.049861752058947	-4.907480152378108	0	0	45.69010979177958	-9.824626928481759	0	60.15264746518771	1.049861752058947	-4.907480152378108	0	0	-31.06232024789145	-1.333183473674412	3.95782045593691	-5.72007036927316	3.642217494567857	-8.451983382568804	47.86215514570963	-0.5414142281520915	0	0	0	-15.18213436860781	0	90.48516821482173	-0.5414142281520915	0	0
0.18	-14.51937655954437	3.204639616110312	-38.61406323087026	0	0.9399999998679526	0	45.69005042031971	-9.824678535810101	0	60.15263699422466	1.049861569306166	-4.907515520035963	0	0	45.69005042031971	-9.824678535810101	0	60.15263699422466	1.049861569306166	-4.907515520035963	0	0	-30.87348424384232	-0.9725739727751995	2.705371242543067	-5.590942986014922	4.128585739330124	-9.647846949198655	48.14556036310805	-0.5413816197044674	0	0	0	-15.18212625104075	0	90.48513898383999	-0.5413816197044674	0	0
0.19	-15.21594938736147	2.389506197648839	-38.16388948473874	0	0.9399999998679526	0	45.68999318606573	-9.824727471575269	0	60.15262677192692	1.049861390893413	-4.90754894698454	0	0	45.68999318606573	-9.824727471575269	0	60.15262677192692	1.049861390893413	-4.90754894698454	0	0	-30.86910953706908	0.03459169008347606	2.484838212129398	-5.537757445112834	5.183169003175664	-9.764290052414026	48.24349057617462	-0.5413500290450666	0	0	0	-15.18211835405506	0	90.48511066522374	-0.5413500290450666	0	0
0.2	-18.05211108349755	3.249551149693577	-38.12305486299446	0	0.9399999998679526	0	45.68517610503837	-9.827619133215961	0	60.15156688028196	1.049842892294494	-4.909363335417627	0	0	45.68517610503837	-9.827619133215961	0	60.15156688028196	1.049842892294494	-4.909363335417627	0	0	-30.02102409897018	0.0143382926215763	1.958169388404603	-4.713012602770293	5.082449245996785	-10.16344619249597	49.19544158676496	-0.5384492384600674	0	0	0	-15.18134226556759	0	90.48251032169102	-0.5384492384600674	0	0
0.21	-20.6265974157991	2.658094566580596	-36.99199665232911	0	0.9399999998679526	0	45.68489922500392	-9.827859994438054	0	60.1515186378377	1.049842050305002	-4.909528012972086	0	0	45.68489922500392	-9.827859994438054	0	60.1515186378377	1.049842050305002	-4.909528012972086	0	0	-29.78486744715932	1.442135524973758	1.464060171026297	-4.487937614240613	6.550612129863023	-10.50745628893144	49.59582156180913	-0.5382975916069399	0	0	0	-15.18130462412538	0	90.48237438188131	-0.5382975916069399	0	0
0.22	-22.26523320573546	2.041999094309727	-37.6617422424701	0	0.9399999998679526	0	45.68485012946372	-9.827902117833439	0	60.15150996547113	1.049841898943652	-4.909556760086504	0	0	45.68485012946372	-9.827902117833439	0	60.15150996547113	1.049841898943652	-4.909556760086504	0	0	-29.29465275766007	1.625079761621672	1.784653841499769	-3.965046508040785	6.687667337202883	-10.11917265406661	50.04575530531369	-0.5382705629893519	0	0	0	-15.18129788431743	0	90.48235015278856	-0.5382705629893519	0	0
0.23	-24.10765919570331	2.255653201568869	-36.95201646784642	0	0.9399999998679526	0	45.68095259321982	-9.830178817628735	0	60.15064357591732	1.049826777593333	-4.910974601432875	0	0	45.68095259321982	-9.830178817628735	0	60.15064357591732	1.049826777593333	-4.910974601432875	0	0	-28.87259177367862	2.272928946141346	0.6108339963553807	-3.507355514791428	7.338664643279672	-11.14299638250011	50.70970006287385	-0.5359102745498137	0	0	0	-15.18066382306529	0	90.48023432902926	-0.5359102745498137	0	0
